# xmcd
#
# Track frame offsets:
#	150
#	14645
#	30277
#	46405
#	62568
#	78681
#	93722
#	108978
#	124275
#	138310
#	153517
#	168635
#	183339
#	198507
#	213212
#	227967
#
# Disc length: 3229 seconds
#
# Revision: 0
# Processed by: cddbd v1.5.2PL0 Copyright (c) Steve Scherf et al.
# Submitted via: EasyCDDAExtractor 16.0.8.2
#
DISCID=e00c9b10
DTITLE=Παπασιδέρης Γιώργος - Ο αμάραντος-Γ. Παπασιδέρης 3
DYEAR=2015
DGENRE=Παραδοσιακή
TTITLE0=Στην κεντισμένη σου ποδιά [παραδοσιακό]
TTITLE1=Νά 'σαν τα νιάτα δυό φορές [παραδοσιακό]
TTITLE2=Ιτιά ιτιά μοσχοϊτιά [παραδοσιακό]
TTITLE3=Ο πλάτανος [παραδ., δσκ. Μαρία Μαλλιάρα]
TTITLE4=Όλες οι παπαρούνες [Γ. Παπασιδέρης]
TTITLE5=Η περιστέρα [διασκ. Γ. Παπασιδέρης]
TTITLE6=Λεμονάκι μυρωδάτο [διασκ. Γ. Παπασιδέρης]
TTITLE7=Καρπενησιώτικο [Γ. Παπασιδέρης]
TTITLE8=Φέξε μου φεγγαράκι μου [Γ. Παπασιδέρης]
TTITLE9=Βασίλω Καλαματιανή [παραδοσιακό]
TTITLE10=Το πανηγύρι [διασκ. Γ. Παπασιδέρης]
TTITLE11=Αγάπα με πουλάκι μου [παρ. κλ. Ν.Καρακώστας]
TTITLE12=Θ' αφήσω γένια και μαλλιά [παραδοσιακό]
TTITLE13=Ο Γιάννος [παραδοσιακό]
TTITLE14=Τσέλιος [παραδοσιακό]
TTITLE15=Σαράντα παλληκάρια [παραδοσιακό]
EXTD=
EXTT0=
EXTT1=
EXTT2=
EXTT3=
EXTT4=
EXTT5=
EXTT6=
EXTT7=
EXTT8=
EXTT9=
EXTT10=
EXTT11=
EXTT12=
EXTT13=
EXTT14=
EXTT15=
PLAYORDER=
